<svg xmlns="http://www.w3.org/2000/svg" viewBox="0 0 400 114.4">
  <path fill="#00b22d" d="M27.8 68.2c0 4.8-3.9 8.7-8.7 8.7s-8.7-3.9-8.7-8.7 3.9-8.7 8.7-8.7 8.7 3.9 8.7 8.7"/>
  <path fill="#404145" d="M0 50v64.4h10.8V50H0zm24.3 64.4h10.8V81.7H24.3v32.7zm99.1-50.3c-7.1 0-12.7 2.3-16.4 6.9v-5.5H96.2v64.1h10.8V84.5c0-6.7 4.3-11.2 10.6-11.2 6.1 0 9.8 4.1 9.8 10.8v30.2h10.8V82c-.1-12-6.3-17.9-14.8-17.9zM161.3 50v27.1c-3.7-4.6-9.4-6.9-16.4-6.9-12.9 0-23.2 10.5-23.2 24.4s10.3 24.4 23.2 24.4c7.1 0 12.7-2.3 16.4-6.9v5.5H172V50h-10.7zm-14.6 58.7c-7.1 0-12.9-6.1-12.9-14.2s5.8-14.2 12.9-14.2 12.9 6.1 12.9 14.2-5.8 14.2-12.9 14.2zm50.2-43.2c-9 0-16.2 3.3-20.1 9.2l8.2 5.8c2.3-3.5 6.2-5.6 11.6-5.6 6.9 0 11.6 3.9 11.6 10.4v.8h-12.9c-11.4 0-19 5.3-19 14.5 0 8.9 7 14.8 17.1 14.8 7.5 0 13-2.9 16.1-8.2v6.8h10.3V79.8c0-12.6-8.2-19.5-22.9-19.5zm10.2 32.6c0 6.7-5.5 11.3-13.4 11.3-5.3 0-8.7-2.5-8.7-6.5 0-4.2 3.3-6.5 9.6-6.5h12.5v1.7zm46.6-32.6c-7.1 0-12.7 2.3-16.4 6.9v-5.5h-10.8v48.3h10.8V84.5c0-6.7 4.3-11.2 10.6-11.2 6.1 0 9.8 4.1 9.8 10.8v30.2h10.8V82c0-12-6.3-17.9-14.8-17.9zm46.5 0c-7.1 0-12.7 2.3-16.4 6.9v-5.5h-10.8v48.3h10.8V84.5c0-6.7 4.3-11.2 10.6-11.2 6.1 0 9.8 4.1 9.8 10.8v30.2H315V82c0-12-6.3-17.9-14.8-17.9z"/>
  <circle fill="#404145" cx="35.1" cy="32.5" r="5.4"/>
  <path fill="#404145" d="M400 80.4c0-2.7-2.2-4.9-4.9-4.9s-4.9 2.2-4.9 4.9v.3h1.5v-.3c0-1.9 1.5-3.4 3.4-3.4s3.4 1.5 3.4 3.4c0 .8-.3 1.6-.8 2.2l-4.4 5.1h9.6v-1.5h-7.3l3.6-4.2c.5-.7.8-1.6.8-2.6zm-378.4-3.7l-.2-.3h-1.4l-.2.3-4.3 9.6v.1c0 .1.1.1.1.1h1.5l1-2.3h5.2l1 2.3h1.5c.1 0 .1-.1.1-.1v-.1l-4.3-9.6zm-2.5 6.1l2-4.4 2 4.4h-4zm10-5.5c-.2-.3-.5-.5-.8-.6s-.8-.2-1.2-.2h-3.6v10.1h1.5V82h2.1c.4 0 .8-.1 1.2-.2s.7-.3.9-.6c.3-.3.5-.6.6-.9.1-.4.2-.7.2-1.1 0-.4-.1-.8-.2-1.1-.2-.4-.4-.7-.7-1zm-.5 2.6c0 .2 0 .5-.1.7s-.2.4-.3.6c-.1.2-.3.3-.5.4s-.5.1-.8.1h-2.1v-3.7h2.1c.3 0 .5 0 .8.1.2.1.4.2.5.4.1.2.2.4.3.6s.1.5.1.8zm3.3-3.2v10.1h6.7v-1.5h-5.2v-3h5v-1.5h-5V78h5.2v-1.5h-6.7zm13-1c0 .3.2.5.5.5s.5-.2.5-.5-.2-.5-.5-.5-.5.2-.5.5zm0 1.6v10.1h1.5V76.3h-1.5zm4.8 0l-.2-.3h-1.4l-.2.3-4.3 9.6v.1c0 .1.1.1.1.1h1.5l1-2.3h5.2l1 2.3h1.5c.1 0 .1-.1.1-.1v-.1l-4.3-9.6zm-2.5 6.1l2-4.4 2 4.4h-4zm14.7-6.1h-1.9l-5.2 7.6v-7.6h-1.5v10.1h1.9l5.2-7.6v7.6h1.5V76.3zm5.6 1.5v-1.5h-6.7v10.1h6.7v-1.5h-5.2v-3h5v-1.5h-5V78h5.2zm5 8.6h6.7v-1.5h-5.2v-8.6h-1.5v10.1zm10.9-2.6h2l2.7 2.6h1.8l-3-2.8c.9-.3 1.6-1.2 1.6-2.3 0-.7-.2-1.3-.7-1.7s-1.2-.7-2.2-.7h-3.7v10.1h1.5v-5.2zm2-.1h-2v-3.5h2.1c.4 0 .8.1 1.1.4.3.2.4.6.4 1 0 .5-.2.8-.5 1.1-.3.3-.7.5-1.2.5-.1.1 0 .5 0 .5z"/>
</svg>
