<svg xmlns="http://www.w3.org/2000/svg" viewBox="0 0 102 28">
  <path fill="#14a800" d="M65.4 5.5h8.8c3.3 0 5.2.6 6.7 2.1 1.3 1.3 2 3.1 2 5.2 0 4.3-2.5 7-6.7 7.4l7.5 8.8h-5.6l-6.9-8.4h-1.3v8.4h-4.5V5.5zm8.5 10.3c2.5 0 4-1.3 4-3.4s-1.5-3.3-4-3.3h-4v6.7h4z"/>
  <path fill="#14a800" d="M14.6 0L0 14.6l14.6 14.6V0z"/>
  <circle fill="#14a800" cx="28.4" cy="14.6" r="5.1"/>
  <path fill="#14a800" d="M38.9 5.5h4.5v10c0 3.6 1.8 5.6 4.8 5.6 2.9 0 4.8-2 4.8-5.6v-10h4.5v9.8c0 6.2-3.6 10-9.3 10-5.8 0-9.3-3.8-9.3-10V5.5zm52 18.5h-5.7c.5-1 .7-2.2.7-4.3V9.2h-3.3V5.5h3.3V0h4.4v5.5h4.3v3.7h-4.3v10.1c0 1.5.6 2.1 2.1 2.1h2.5v3.6zM63.1 23.6c-1.5 1.2-3.5 1.8-5.8 1.8-5.3 0-8.7-3.3-8.7-8.6 0-5.3 3.4-8.6 8.9-8.6 5.1 0 8.5 3.1 8.5 7.9 0 .8-.1 1.5-.2 2h-12.7c.4 2.3 2 3.6 4.4 3.6 1.7 0 3-.6 4.2-1.8l1.4 2.7zm-11-7.8h8.4c-.3-2.1-1.7-3.4-4.1-3.4s-3.9 1.3-4.3 3.4z"/>
</svg>
